<svg width="100" height="44" viewBox="0 0 100 44" fill="none" xmlns="http://www.w3.org/2000/svg">
<path d="M5.51912 0.182195H22.4756C22.6418 0.17823 22.8067 0.211265 22.9578 0.278815C23.1089 0.346365 23.2422 0.446643 23.3476 0.572009C23.453 0.697374 23.5277 0.844537 23.5661 1.0023C23.6044 1.16005 23.6053 1.32426 23.5687 1.48242L20.9026 17.3192C20.8359 17.6755 20.646 17.9989 20.3647 18.2354C20.0833 18.472 19.7275 18.6075 19.3562 18.6194H9.30504C8.93235 18.6264 8.57391 18.7602 8.29157 18.9976C8.00924 19.235 7.8207 19.5611 7.75865 19.9196L6.93216 24.8085C6.85982 25.167 6.66476 25.4909 6.37897 25.7271C6.09318 25.9634 5.73361 26.0979 5.35916 26.1087H1.14674C0.978371 26.1168 0.81038 26.0867 0.655879 26.021C0.501378 25.9552 0.364568 25.8555 0.256141 25.7296C0.147715 25.6037 0.0705987 25.455 0.0308464 25.2952C-0.008906 25.1354 -0.0102664 24.9688 0.0269409 24.8085L3.9995 1.40441C4.08088 1.06661 4.27356 0.764158 4.54805 0.5434C4.82254 0.322641 5.16363 0.195749 5.51912 0.182195ZM9.73162 7.98355L9.19837 11.0781C9.16116 11.2385 9.16252 11.4051 9.20227 11.5648C9.24203 11.7246 9.31914 11.8733 9.42757 11.9992C9.53599 12.1251 9.67281 12.2248 9.82731 12.2906C9.98181 12.3564 10.1498 12.3864 10.3182 12.3783H13.4908C13.8606 12.3618 14.214 12.2247 14.4944 11.9889C14.7748 11.7531 14.9659 11.4324 15.0372 11.0781L15.5704 7.98355C15.6076 7.82318 15.6063 7.65658 15.5665 7.4968C15.5268 7.33701 15.4496 7.18836 15.3412 7.06246C15.2328 6.93656 15.096 6.83683 14.9415 6.77106C14.787 6.70528 14.619 6.67526 14.4506 6.68332H11.2779C10.8761 6.70789 10.4972 6.87467 10.2125 7.15238C9.92776 7.43008 9.75681 7.79962 9.73162 8.19159V7.98355ZM28.3944 0.182195H32.7935C32.9596 0.17823 33.1245 0.211265 33.2756 0.278815C33.4267 0.346365 33.56 0.446643 33.6654 0.572009C33.7708 0.697374 33.8456 0.844537 33.8839 1.0023C33.9222 1.16005 33.9231 1.32426 33.8866 1.48242L29.9407 24.8865C29.8684 25.245 29.6733 25.5689 29.3875 25.8051C29.1017 26.0414 28.7422 26.1759 28.3677 26.1867H24.1553C23.9869 26.1948 23.8189 26.1647 23.6644 26.099C23.5099 26.0332 23.3731 25.9335 23.2647 25.8076C23.1563 25.6817 23.0791 25.533 23.0394 25.3732C22.9996 25.2134 22.9983 25.0469 23.0355 24.8865L26.1015 6.86537L27.008 1.66447C27.0357 1.29329 27.1942 0.942886 27.4566 0.672716C27.719 0.402546 28.0692 0.229233 28.4477 0.182195H28.3944ZM38.8455 0.182195H55.9353C56.1021 0.17921 56.2676 0.212651 56.4195 0.280045C56.5714 0.347439 56.7059 0.447099 56.8133 0.571731C56.9206 0.696363 56.998 0.842822 57.0399 1.00039C57.0817 1.15796 57.0869 1.32264 57.0551 1.48242L53.0025 25.3286C52.9601 25.5739 52.8581 25.8057 52.705 26.0048C52.552 26.2038 52.3523 26.3643 52.1228 26.4728L46.7905 29.6453C46.4421 29.8411 46.1437 30.1112 45.9174 30.4355C45.6912 30.7597 45.5431 31.1297 45.4842 31.5176L43.5646 42.6996C43.4978 43.056 43.3079 43.3793 43.0266 43.6158C42.7453 43.8524 42.3894 43.9879 42.0182 43.9998H37.939C37.7722 44.0028 37.6067 43.9694 37.4548 43.902C37.3029 43.8346 37.1685 43.7349 37.0611 43.6103C36.9538 43.4856 36.8764 43.3392 36.8345 43.1816C36.7927 43.0241 36.7875 42.8594 36.8193 42.6996L38.7389 31.5176C38.8064 31.1736 38.7777 30.8182 38.6557 30.4887C38.5337 30.1592 38.323 29.8679 38.0457 29.6453L33.7799 26.4728C33.5831 26.358 33.4283 26.1857 33.3374 25.9804C33.2465 25.775 33.2241 25.547 33.2733 25.3286L37.3259 1.48242C37.4026 1.12599 37.5988 0.804657 37.8837 0.569191C38.1686 0.333725 38.5258 0.197549 38.8989 0.182195H38.8455ZM43.058 7.98355L40.9784 20.2057C40.9466 20.3654 40.9518 20.5302 40.9937 20.6877C41.0355 20.8453 41.1129 20.9918 41.2203 21.1164C41.3276 21.241 41.4622 21.3407 41.6141 21.4081C41.766 21.4755 41.9313 21.5089 42.0982 21.5059H45.4042C45.7769 21.4988 46.1353 21.3651 46.4177 21.1277C46.7 20.8903 46.8885 20.5642 46.9505 20.2057L49.0301 7.98355C49.0666 7.82539 49.0657 7.66118 49.0274 7.50342C48.9891 7.34567 48.9144 7.1985 48.809 7.07314C48.7036 6.94777 48.5702 6.84749 48.4191 6.77994C48.268 6.71239 48.1031 6.67936 47.937 6.68332H44.631C44.2339 6.71392 43.8615 6.88339 43.5822 7.16051C43.303 7.43763 43.1358 7.80378 43.1113 8.19159L43.058 7.98355ZM57.7749 26.0047C57.6065 26.0128 57.4385 25.9827 57.284 25.917C57.1295 25.8512 56.9927 25.7515 56.8843 25.6256C56.7759 25.4997 56.6988 25.351 56.659 25.1912C56.6193 25.0314 56.618 24.8648 56.6552 24.7045L59.7212 6.68332L60.601 1.48242C60.6777 1.12599 60.874 0.804657 61.1589 0.569191C61.4438 0.333725 61.8009 0.197549 62.174 0.182195H66.3865C66.5533 0.17921 66.7188 0.212651 66.8707 0.280045C67.0226 0.347439 67.1571 0.447099 67.2644 0.571731C67.3717 0.696363 67.4491 0.842822 67.491 1.00039C67.5328 1.15796 67.538 1.32264 67.5062 1.48242L64.5735 18.6714C64.5371 18.833 64.5389 19.0006 64.5786 19.1615C64.6183 19.3224 64.695 19.4723 64.8028 19.6001C64.9107 19.7278 65.0468 19.8299 65.2011 19.8988C65.3554 19.9677 65.5237 20.0015 65.6933 19.9976H74.838C75.0042 19.9937 75.1691 20.0267 75.3202 20.0943C75.4713 20.1618 75.6047 20.2621 75.7101 20.3875C75.8154 20.5128 75.8901 20.66 75.9284 20.8178C75.9667 20.9755 75.9677 21.1397 75.9311 21.2978L75.3446 24.8085C75.2733 25.1628 75.0822 25.4835 74.8018 25.7193C74.5214 25.955 74.1681 26.0922 73.7983 26.1087L57.7749 26.0047ZM83.1296 0.000183857H98.8597C99.0265 -0.00280144 99.192 0.0306006 99.3439 0.0979944C99.4958 0.165388 99.6303 0.265048 99.7377 0.38968C99.845 0.514312 99.9224 0.660771 99.9642 0.81834C100.006 0.97591 100.011 1.14063 99.9795 1.30041L99.3663 4.83703C99.2995 5.1934 99.1096 5.51672 98.8283 5.75327C98.547 5.98982 98.1912 6.12534 97.8199 6.13725H88.9684C88.5957 6.1443 88.2372 6.27804 87.9549 6.51544C87.6726 6.75283 87.4841 7.07897 87.422 7.43748L87.2088 8.60767C87.177 8.76745 87.1822 8.93213 87.224 9.0897C87.2658 9.24727 87.3433 9.39373 87.4506 9.51836C87.5579 9.64299 87.6925 9.74265 87.8444 9.81005C87.9963 9.87744 88.1617 9.91088 88.3285 9.9079H97.18C97.3484 9.89983 97.5164 9.92986 97.6709 9.99563C97.8254 10.0614 97.9622 10.1611 98.0706 10.287C98.1791 10.4129 98.2562 10.5616 98.2959 10.7214C98.3357 10.8812 98.337 11.0478 98.2998 11.2081L97.6866 14.7187C97.6207 15.0778 97.4318 15.4045 97.151 15.6454C96.8701 15.8863 96.5138 16.0271 96.1403 16.045H87.2888C86.9161 16.052 86.5576 16.1858 86.2753 16.4232C85.993 16.6605 85.8044 16.9867 85.7424 17.3452L85.5291 18.4894C85.4927 18.651 85.4945 18.8186 85.5342 18.9794C85.5739 19.1403 85.6506 19.2903 85.7584 19.418C85.8663 19.5458 86.0025 19.6479 86.1568 19.7168C86.311 19.7857 86.4793 19.8195 86.6489 19.8156H95.5004C95.6672 19.8126 95.8327 19.8461 95.9846 19.9135C96.1365 19.9809 96.271 20.0805 96.3784 20.2051C96.4857 20.3297 96.5631 20.4762 96.6049 20.6338C96.6468 20.7913 96.652 20.9561 96.6202 21.1158L96.0069 24.6265C95.9402 24.9828 95.7504 25.3062 95.469 25.5427C95.1877 25.7793 94.8318 25.9148 94.4606 25.9267H78.7306C78.5622 25.9348 78.3941 25.9047 78.2396 25.8389C78.0851 25.7731 77.9483 25.6734 77.8399 25.5475C77.7315 25.4216 77.6544 25.273 77.6147 25.1132C77.5749 24.9534 77.5736 24.7868 77.6108 24.6265L80.6768 6.60531L81.5567 1.40441C81.651 1.05395 81.8618 0.743878 82.1561 0.522726C82.4503 0.301575 82.8115 0.181818 83.1829 0.182195L83.1296 0.000183857Z" fill="url(#paint0_linear_11693_282272)"/>
<defs>
<linearGradient id="paint0_linear_11693_282272" x1="16.9568" y1="-13.9122" x2="81.7082" y2="41.7934" gradientUnits="userSpaceOnUse">
<stop stop-color="#BAEC00"/>
<stop offset="0.18" stop-color="#B5EC00"/>
<stop offset="0.39" stop-color="#A7EB00"/>
<stop offset="0.61" stop-color="#91EA00"/>
<stop offset="0.84" stop-color="#71E800"/>
<stop offset="1" stop-color="#55E600"/>
</linearGradient>
</defs>
</svg>
